<?xml version="1.0" encoding="UTF-8" standalone="no"?>
<!-- Created with Inkscape (http://www.inkscape.org/) -->

<svg
   version="1.1"
   id="svg1"
   width="189.11043"
   height="181.26875"
   viewBox="0 0 189.11043 181.26875"
   sodipodi:docname="ghost.svg"
   inkscape:version="1.3 (0e150ed, 2023-07-21)"
   inkscape:export-filename="ghost.svg"
   inkscape:export-xdpi="16.244476"
   inkscape:export-ydpi="16.244476"
   xmlns:inkscape="http://www.inkscape.org/namespaces/inkscape"
   xmlns:sodipodi="http://sodipodi.sourceforge.net/DTD/sodipodi-0.dtd"
   xmlns="http://www.w3.org/2000/svg"
   xmlns:svg="http://www.w3.org/2000/svg">
  <defs
     id="defs1" />
  <sodipodi:namedview
     id="namedview1"
     pagecolor="#ffffff"
     bordercolor="#000000"
     borderopacity="0.25"
     inkscape:showpageshadow="2"
     inkscape:pageopacity="0.0"
     inkscape:pagecheckerboard="0"
     inkscape:deskcolor="#d1d1d1"
     inkscape:zoom="1.0039512"
     inkscape:cx="278.89802"
     inkscape:cy="185.766"
     inkscape:window-width="960"
     inkscape:window-height="512"
     inkscape:window-x="972"
     inkscape:window-y="540"
     inkscape:window-maximized="0"
     inkscape:current-layer="g1" />
  <g
     inkscape:groupmode="layer"
     inkscape:label="Image"
     id="g1"
     transform="translate(-185.60014,-82.142723)">
    <path
       style="fill:#000000"
       d="m 273.43915,263.12455 c -3.34868,-0.37001 -7.90838,-1.83776 -11.61464,-3.7387 -6.87521,-3.52629 -8.95457,-3.53224 -18.34075,-0.0525 -6.50679,2.41225 -15.51217,2.88679 -20.90022,1.10135 -4.28848,-1.42108 -8.14686,-5.7307 -8.91947,-9.96263 -0.34021,-1.86349 1.72534,-16.55427 5.19941,-36.9796 4.44429,-26.12955 5.53516,-34.38982 4.76487,-36.08042 -0.60962,-1.33797 -3.68006,-3.46876 -7.87761,-5.4668 -10.41932,-4.95963 -19.30852,-14.16571 -24.9553,-25.84491 -2.42518,-5.016 -4.68845,-10.90092 -5.02949,-13.0776 -1.23969,-7.91236 4.61956,-14.7515 12.64421,-14.75881 5.53834,-0.005 9.7442,3.15249 13.17088,9.88803 3.18646,6.26334 6.95399,9.56481 13.94747,12.22212 3.67094,1.39485 4.97563,1.54444 5.66317,0.64933 0.49134,-0.63969 2.24676,-5.30877 3.90094,-10.37574 9.84164,-30.14625 22.00842,-44.554257 40.44711,-47.897829 25.52654,-4.628845 47.01756,17.474099 55.72266,57.309299 0.97686,4.47016 2.00655,8.35802 2.28821,8.63968 0.97134,0.97134 4.93308,-0.6068 8.95486,-3.56712 2.59075,-1.90699 4.90115,-4.80323 6.45965,-8.09764 3.34677,-7.07449 7.18452,-10.13372 12.71255,-10.13372 7.90502,0 13.1494,5.2769 13.03096,13.11177 -0.0794,5.25318 -6.11466,17.86405 -12.24258,25.58131 -2.43393,3.0652 -7.85907,8.2492 -12.05586,11.52 -11.45789,8.92978 -11.30333,6.38094 -3.15499,52.02691 2.8703,16.07907 3.10326,22.56535 0.92962,25.88275 -5.05991,7.72241 -17.04554,8.70165 -34.95384,2.85579 -8.38027,-2.73559 -10.34335,-2.55571 -18.86575,1.72876 -6.55507,3.29544 -13.05073,4.38713 -20.92607,3.51694 z"
       id="path1" />
    <path
       style="fill:#ffffff"
       d="m 293.47295,253.34138 c 9.37982,-4.28188 12.68165,-4.42378 22.367,-0.96126 5.71324,2.04248 9.05071,2.60842 15.56877,2.64 9.59249,0.0465 12.35279,-1.42843 12.33066,-6.5886 -0.007,-1.63416 -1.94929,-14.41921 -4.31618,-28.41121 -2.36689,-13.992 -4.30515,-27.62152 -4.30726,-30.28783 -0.005,-6.22548 3.04437,-11.07062 10.24005,-16.27088 13.45839,-9.72629 25.48185,-29.09074 22.79907,-36.71918 -2.17814,-6.19352 -10.62156,-4.8867 -13.27232,2.05421 -2.02169,5.29374 -8.45082,11.78276 -14.49062,14.62562 -9.82474,4.6244 -11.56555,2.91844 -16.17693,-15.85309 -5.83847,-23.76664 -15.99688,-39.993724 -28.94307,-46.233799 -5.54881,-2.674534 -16.07078,-3.622406 -22.12234,-1.992891 -13.24057,3.565315 -24.05332,18.0078 -32.0717,42.83785 -4.06404,12.58485 -4.59281,13.58221 -7.93497,14.96657 -6.4578,2.67491 -20.32189,-4.72029 -25.35884,-13.52657 -5.5923,-9.77724 -9.54406,-11.92809 -13.90435,-7.5678 -2.8359,2.8359 -2.03062,8.6453 2.45705,17.72549 4.89432,9.90297 12.19321,17.50128 21.42556,22.30448 8.71483,4.53395 11.63724,7.33034 12.33192,11.80016 0.2912,1.87369 -1.76417,16.55712 -4.83801,34.56247 -5.99831,35.13561 -6.24687,38.14082 -3.36998,40.74437 3.54744,3.21038 12.48757,3.03069 21.96941,-0.44157 9.8323,-3.60061 11.79394,-3.65117 17.33625,-0.44685 7.30974,4.22615 10.63819,5.13727 17.76,4.86155 5.35807,-0.20744 8.30099,-0.98188 14.52083,-3.82124 z"
       id="path2" />
    <path
       style="fill:#000000"
       d="m 281.64239,180.59713 c -6.29301,-2.37958 -6.81417,-15.90221 -0.73819,-19.15398 4.93837,-2.64294 10.99645,2.51935 11.00434,9.37717 0.004,3.48481 -0.43659,3.77696 -2.53356,1.68 -1.7245,-1.7245 -7.17577,-1.90309 -8.79086,-0.288 -2.66073,2.66073 -0.91746,6.86879 3.168,7.64721 1.056,0.20121 1.488,0.62897 0.96,0.95059 -0.528,0.32162 -1.90938,0.22577 -3.06973,-0.21299 z"
       id="path3"
       inkscape:label="path3" />
    <path
       style="fill:#000000"
       d="m 262.1913,150.30596 c -4.24697,-3.57358 -5.79918,-7.15216 -5.79918,-13.36985 0,-6.48212 1.99206,-10.35567 6.40179,-12.44822 11.46126,-5.43873 20.89014,16.75595 10.91482,25.69243 -3.76619,3.37396 -7.60722,3.41587 -11.51743,0.12564 z"
       id="path4"
       inkscape:label="path4" />
    <path
       style="fill:#ffffff"
       d="m 274.08355,144.59174 c 1.56727,-1.56727 1.9995,-5.87217 0.77387,-7.70771 -1.20795,-1.80908 -4.81235,-3.28517 -6.46929,-2.64934 -1.4183,0.54425 -3.35601,4.03089 -3.35601,6.03866 0,0.42242 0.89536,1.9063 1.98968,3.2975 2.25316,2.86443 4.84371,3.23893 7.06175,1.02089 z"
       id="path5" />
    <path
       style="fill:#000000"
       d="m 292.29612,149.55632 c -3.21418,-3.21418 -3.74458,-5.04034 -3.37202,-11.60967 0.49888,-8.7966 8.54666,-16.14917 14.85755,-13.57406 4.67786,1.90877 6.81847,5.65865 6.81847,11.94446 0,6.46121 -2.29869,11.08966 -7.12187,14.34 -4.49209,3.02722 -7.33391,2.74748 -11.18213,-1.10073 z"
       id="path6" />
    <path
       style="fill:#ffffff"
       d="m 300.01769,143.96671 c 2.0428,-2.91651 1.87468,-5.8647 -0.45464,-7.9727 -4.27337,-3.86735 -10.3792,2.10178 -7.84323,7.66763 1.46496,3.21522 6.13915,3.38707 8.29787,0.30507 z"
       id="path7"
       inkscape:label="path7" />
  </g>
</svg>
